<svg xmlns="http://www.w3.org/2000/svg" viewBox="0 0 180 180"><path d="M124.69 64.7c-2.93-2.93-7.68-2.93-10.61 0s-2.93 7.68 0 10.6L128.79 90l-14.69 14.69c-2.93 2.93-2.93 7.68 0 10.6a7.495 7.495 0 005.31 2.19c1.92 0 3.84-.73 5.31-2.19L150 90l-25.31-25.3zm-58.78 0a7.49 7.49 0 00-10.6 0L30 90l25.3 25.31c1.47 1.46 3.38 2.19 5.3 2.19s3.84-.73 5.31-2.19a7.49 7.49 0 000-10.6L51.21 90 65.9 75.31a7.493 7.493 0 00.01-10.61zm40.4-34.52c-2.67-.73-5.42.85-6.14 3.51l-30 110a5.014 5.014 0 004.83 6.32c2.2 0 4.22-1.46 4.82-3.68l30-110c.73-2.67-.84-5.42-3.51-6.15z"/></svg>